<svg xmlns="http://www.w3.org/2000/svg" viewBox="0 0 848.82 244.2"><defs><style>.cls-1,.cls-2{fill:#1ab845;}.cls-2{opacity:0.5;isolation:isolate;}</style></defs><g id="Layer_2" data-name="Layer 2"><g id="Layer_1-2" data-name="Layer 1"><path class="cls-1" d="M35.31,230.72Q10.83,217.25,1.56,195.57A16.32,16.32,0,0,1,0,189.48a11.31,11.31,0,0,1,.88-4.38,11.46,11.46,0,0,1,2.52-3.71,17.39,17.39,0,0,1,9.24-4.79,11.08,11.08,0,0,1,3.09-.31,17.09,17.09,0,0,1,9.41,2.85A17.6,17.6,0,0,1,31.68,187q5.59,11.88,21.92,20.13a78.89,78.89,0,0,0,36.09,8.24,70.06,70.06,0,0,0,39.17-10.51,33.15,33.15,0,0,0,12-12.29A32.7,32.7,0,0,0,145,176a38.79,38.79,0,0,0-13.57-29.73q-13.56-12.42-41.33-15.1-38.25-3.67-60.16-22.13a58.33,58.33,0,0,1-16.35-20.6A57.69,57.69,0,0,1,8,62.87,52.65,52.65,0,0,1,19.27,29.15,70.68,70.68,0,0,1,50.14,7.47,123.1,123.1,0,0,1,94.1,0q26.52,0,44.73,10.68A91.56,91.56,0,0,1,169.67,41.2a20.44,20.44,0,0,1,3.72,11,12.71,12.71,0,0,1-1.66,6.28,13,13,0,0,1-4.53,4.69,14.56,14.56,0,0,1-8,2.13A17.33,17.33,0,0,1,150.55,63a15.87,15.87,0,0,1-6.17-6.26,58.19,58.19,0,0,0-20.82-20.88,62.8,62.8,0,0,0-31.68-7.18q-23.47,0-38,9A29.22,29.22,0,0,0,43.08,48.78a28.8,28.8,0,0,0-3.56,15,32.8,32.8,0,0,0,3.34,14.78,33.24,33.24,0,0,0,9.62,11.77q13,10.68,46.28,14,37,3.68,57.35,22.13t20.36,48.65a60.09,60.09,0,0,1-12,37.68,72.46,72.46,0,0,1-31.94,23.62,116.48,116.48,0,0,1-42.71,7.77,111.54,111.54,0,0,1-54.47-13.47Z"/><path class="cls-1" d="M662,239.49a15.2,15.2,0,0,1-4.63-11.39V21.69a15,15,0,0,1,1.1-6.18A15.22,15.22,0,0,1,662,10.29a15.86,15.86,0,0,1,11.53-4.41h55.84a124.34,124.34,0,0,1,62,15.24,108.36,108.36,0,0,1,42.26,42.27,123.73,123.73,0,0,1,15.12,61.46,124.64,124.64,0,0,1-15.12,61.64,107.91,107.91,0,0,1-42.26,42.38,124,124,0,0,1-62,15.26h-56a15.61,15.61,0,0,1-6.19-1.15,15.45,15.45,0,0,1-5.22-3.49ZM729.3,216a90.45,90.45,0,0,0,45.82-11.59,81.25,81.25,0,0,0,31.34-32.5A97.68,97.68,0,0,0,818,124.79a96.85,96.85,0,0,0-11.52-47,81.59,81.59,0,0,0-31.34-32.22A90.55,90.55,0,0,0,729.3,34H689.49V216.28Z"/><path class="cls-2" d="M582.15,214.8H456.28a14.64,14.64,0,1,0,0,29.28H582.15a14.64,14.64,0,1,0,0-29.28Z"/><path class="cls-2" d="M582.15,5.82H456.28a14.64,14.64,0,1,0,0,29.28H582.15a14.64,14.64,0,1,0,0-29.28Z"/><path class="cls-1" d="M456.28,35.07H582.15a14.64,14.64,0,1,0,0-29.28H456.28a14.64,14.64,0,1,0,0,29.28Z"/><path class="cls-1" d="M456.28,244.08H582.15a14.64,14.64,0,1,0,0-29.28H456.28a14.64,14.64,0,1,0,0,29.28Z"/><path class="cls-2" d="M582.15,108.93H456.28a14.64,14.64,0,1,0,0,29.28H582.15a14.64,14.64,0,1,0,0-29.28Z"/><path class="cls-1" d="M456.25,138.24h71.4a14.64,14.64,0,1,0,0-29.28h-71.4a14.64,14.64,0,1,0,0,29.28Z"/><path class="cls-2" d="M366.19,214.8H240.32a14.64,14.64,0,1,0,0,29.28H366.19a14.64,14.64,0,1,0,0-29.28Z"/><path class="cls-2" d="M366.19,5.82H240.32a14.64,14.64,0,1,0,0,29.28H366.19a14.64,14.64,0,1,0,0-29.28Z"/><path class="cls-1" d="M240.32,35.07H366.19a14.64,14.64,0,1,0,0-29.28H240.32a14.64,14.64,0,1,0,0,29.28Z"/><path class="cls-1" d="M240.32,244.08H366.19a14.64,14.64,0,1,0,0-29.28H240.32a14.64,14.64,0,1,0,0,29.28Z"/><path class="cls-2" d="M366.19,108.93H240.32a14.64,14.64,0,1,0,0,29.28H366.19a14.64,14.64,0,1,0,0-29.28Z"/><path class="cls-1" d="M240.32,138.24h71.41a14.64,14.64,0,1,0,0-29.28H240.32a14.64,14.64,0,1,0,0,29.28Z"/></g></g></svg>